<?xml version="1.0" encoding="UTF-8"?>
<!-- Generator: visioncortex VTracer 0.6.3 -->
<svg version="1.1" xmlns="http://www.w3.org/2000/svg" width="640" height="640">
<path d="M0 0 C211.2 0 422.4 0 640 0 C640 211.2 640 422.4 640 640 C428.8 640 217.6 640 0 640 C0 428.8 0 217.6 0 0 Z " fill="#FEFEFE" transform="translate(0,0)"/>
<path d="M0 0 C2.5 0.92 4.99 1.82 7.5 2.71 C8.59 3.12 9.68 3.52 10.81 3.93 C13.88 4.86 16.73 5.48 19.88 6.01 C25.31 6.95 30.38 8.44 35.6 10.2 C37 10.66 37 10.66 38.43 11.13 C40.44 11.8 42.46 12.46 44.47 13.13 C49.95 14.96 55.45 16.77 60.94 18.58 C62.07 18.95 63.21 19.33 64.37 19.71 C74.92 23.19 85.5 26.59 96.08 29.97 C99.13 30.94 102.18 31.92 105.23 32.89 C114.84 35.98 124.46 39.04 134.1 42.05 C139.32 43.67 144.52 45.31 149.73 46.95 C152.88 47.95 156.03 48.93 159.19 49.91 C162.69 50.99 166.19 52.09 169.68 53.2 C170.73 53.52 171.77 53.83 172.85 54.16 C178.13 55.86 181.64 57.03 184.56 62.06 C185.99 64.92 185.87 66.9 185.56 70.06 C181.04 77.84 170.13 79.71 162.12 82.56 C159.94 83.34 157.75 84.12 155.57 84.91 C154.61 85.25 153.64 85.59 152.65 85.94 C149.72 87.01 146.8 88.1 143.88 89.2 C135.55 92.31 127.2 95.35 118.85 98.41 C116.4 99.31 113.94 100.21 111.49 101.11 C107.95 102.41 104.4 103.71 100.85 105.01 C99.75 105.42 98.65 105.82 97.51 106.24 C96.5 106.61 95.48 106.98 94.44 107.37 C93.54 107.69 92.65 108.02 91.72 108.36 C89.56 109.06 89.56 109.06 87.56 109.06 C87.57 110.09 87.57 110.09 87.58 111.14 C87.63 119.23 87.62 127.31 87.58 135.4 C87.57 139.52 87.56 143.64 87.56 147.77 C87.56 153.83 87.52 159.89 87.46 165.96 C87.45 168.4 87.44 170.84 87.44 173.28 C87.45 176.75 87.41 180.22 87.37 183.69 C87.38 184.74 87.39 185.78 87.39 186.85 C87.27 192.95 86.41 196.39 82.11 200.82 C79.87 202.62 77.95 203.18 75.12 203.62 C70.27 204.6 65.86 206.02 61.31 207.94 C55.28 210.46 49.19 212.54 42.93 214.41 C40.31 215.2 37.74 215.99 35.22 217.05 C30.17 218.97 24.8 219.66 19.5 220.62 C18.34 220.85 17.17 221.07 15.97 221.29 C4.18 223.47 -7.33 224.24 -19.31 224.19 C-21.02 224.18 -21.02 224.18 -22.76 224.18 C-42.84 224.05 -42.84 224.05 -52.25 221.59 C-55.36 220.84 -58.49 220.32 -61.64 219.77 C-71.38 218.06 -80.61 215.63 -89.98 212.51 C-94.16 211.13 -98.36 209.97 -102.62 208.88 C-124.07 203.28 -124.07 203.28 -129.44 195.06 C-129.83 192.18 -130 189.67 -129.98 186.78 C-129.99 185.96 -130 185.14 -130.01 184.3 C-130.04 181.6 -130.05 178.9 -130.05 176.2 C-130.06 174.32 -130.08 172.45 -130.1 170.57 C-130.14 165.64 -130.16 160.71 -130.18 155.78 C-130.2 150.75 -130.24 145.71 -130.28 140.68 C-130.35 130.81 -130.4 120.93 -130.44 111.06 C-132.16 110.43 -133.89 109.81 -135.61 109.18 C-136.57 108.83 -137.53 108.48 -138.52 108.12 C-141.22 107.14 -143.92 106.16 -146.62 105.19 C-151.18 103.53 -155.72 101.83 -160.25 100.12 C-166.53 97.76 -172.83 95.47 -179.16 93.24 C-188.29 89.97 -197.35 86.47 -206.44 83.06 C-206.44 97.25 -206.44 111.44 -206.44 126.06 C-205.12 126.39 -203.8 126.72 -202.44 127.06 C-195.39 131.05 -190.21 136.83 -187.13 144.34 C-185.37 151.25 -185.16 159.11 -188 165.69 C-192.57 176.41 -186.48 193.6 -184.37 204.71 C-179.26 231.78 -179.26 231.78 -183.28 237.85 C-185.82 240.46 -187.4 241 -191 241.22 C-192.54 241.24 -192.54 241.24 -194.11 241.26 C-195.28 241.27 -196.44 241.29 -197.64 241.3 C-202.96 241.35 -208.28 241.39 -213.6 241.41 C-216.4 241.43 -219.21 241.45 -222.02 241.49 C-226.06 241.55 -230.1 241.57 -234.15 241.59 C-236.03 241.62 -236.03 241.62 -237.95 241.65 C-246.57 241.63 -246.57 241.63 -250.73 238.9 C-256.91 228.62 -250.61 210.78 -248.44 199.75 C-247.86 196.8 -247.29 193.85 -246.73 190.89 C-246.38 189.07 -246.02 187.25 -245.66 185.43 C-244.19 177.77 -243.27 171.39 -246.75 164.27 C-248.87 157.45 -248.54 148.74 -245.88 142.12 C-242.28 135.39 -237.15 129.72 -230.44 126.06 C-229.45 126.06 -228.46 126.06 -227.44 126.06 C-227.46 125.3 -227.48 124.54 -227.5 123.75 C-227.7 116.54 -227.88 109.33 -228.04 102.12 C-228.12 98.42 -228.21 94.71 -228.31 91 C-228.41 87.43 -228.5 83.85 -228.56 80.27 C-228.59 78.9 -228.63 77.54 -228.68 76.18 C-229.06 64.17 -229.06 64.17 -226.63 60.28 C-223.87 57.49 -221.09 56.25 -217.44 55.06 C-216.75 54.82 -216.05 54.58 -215.34 54.33 C-208.87 52.1 -202.3 50.17 -195.73 48.24 C-189.7 46.48 -183.83 44.45 -177.94 42.28 C-173.19 40.63 -168.37 39.25 -163.54 37.87 C-159.61 36.73 -155.77 35.51 -151.94 34.06 C-147.39 32.34 -142.79 30.96 -138.12 29.62 C-132.82 28.1 -127.62 26.46 -122.44 24.56 C-116.54 22.4 -110.58 20.6 -104.54 18.87 C-100.61 17.73 -96.77 16.51 -92.94 15.06 C-88.39 13.34 -83.79 11.96 -79.12 10.62 C-73.82 9.1 -68.62 7.46 -63.44 5.56 C-52.43 1.54 -41.15 -1.63 -29.76 -4.36 C-18.86 -7.07 -10.42 -3.84 0 0 Z " fill="#0A2E78" transform="translate(343.4375,92.9375)"/>
<path d="M0 0 C1.3 -0.01 1.3 -0.01 2.63 -0.02 C5.47 -0.03 8.31 -0.04 11.15 -0.04 C12.12 -0.04 13.1 -0.05 14.11 -0.05 C19.26 -0.07 24.42 -0.07 29.57 -0.08 C34.89 -0.08 40.2 -0.11 45.52 -0.14 C49.62 -0.16 53.72 -0.16 57.82 -0.16 C59.78 -0.17 61.74 -0.17 63.69 -0.19 C66.43 -0.2 69.17 -0.2 71.91 -0.2 C73.12 -0.21 73.12 -0.21 74.35 -0.22 C79.57 -0.18 83.19 0.72 87.83 3.16 C91.69 7.39 91.18 12.06 91.02 17.47 C91 18.31 90.99 19.15 90.97 20.01 C90.94 22.06 90.89 24.11 90.83 26.16 C91.9 25.72 92.98 25.27 94.08 24.81 C95.52 24.24 96.95 23.67 98.39 23.1 C99.09 22.8 99.8 22.51 100.52 22.21 C105.34 20.32 108.66 19.84 113.83 21.16 C116.53 22.98 118.36 24.24 119.83 27.16 C119.95 28.59 120.01 30.03 120.04 31.47 C120.06 32.36 120.07 33.25 120.09 34.17 C120.15 38.27 120.2 42.37 120.23 46.47 C120.25 48.63 120.29 50.78 120.34 52.94 C120.4 56.06 120.43 59.17 120.45 62.29 C120.48 63.24 120.5 64.2 120.53 65.18 C120.51 72.34 118.41 76.7 113.83 82.16 C110.11 85.82 105.87 87.65 101.08 89.54 C100.33 89.84 99.59 90.14 98.83 90.44 C92.96 92.78 87.03 94.9 81.07 96.96 C76.39 98.58 71.79 100.34 67.2 102.22 C62.23 104.25 57.25 106.07 52.14 107.72 C46.53 109.55 41.15 111.65 35.73 113.97 C31.76 115.6 27.7 116.88 23.62 118.2 C21.16 119.05 18.86 120 16.52 121.1 C11.95 123.22 7.21 124.75 2.43 126.3 C-1.36 127.53 -5.06 128.88 -8.73 130.41 C-12.2 131.85 -15.41 132.77 -19.17 133.16 C-19.1 133.82 -19.03 134.47 -18.96 135.15 C-18.35 145.46 -22.39 153.12 -28.86 160.97 C-37.6 170.2 -47.95 174.75 -60.54 175.26 C-63.21 175.3 -65.88 175.31 -68.54 175.31 C-70.06 175.31 -70.06 175.31 -71.6 175.32 C-74.91 175.33 -78.22 175.33 -81.54 175.33 C-83.85 175.33 -86.17 175.34 -88.48 175.34 C-93.33 175.35 -98.18 175.35 -103.03 175.35 C-109.23 175.35 -115.42 175.36 -121.61 175.38 C-126.4 175.39 -131.18 175.39 -135.96 175.39 C-138.24 175.39 -140.53 175.4 -142.81 175.4 C-146.01 175.41 -149.21 175.41 -152.41 175.4 C-153.34 175.41 -154.27 175.42 -155.23 175.42 C-168.8 175.36 -179.24 172.4 -189.32 163.1 C-197.12 154.92 -200.67 145.2 -202.17 134.16 C-203.27 133.76 -204.37 133.35 -205.51 132.93 C-229.5 124.1 -253.48 115.2 -277.42 106.22 C-279.14 105.58 -279.14 105.58 -280.9 104.92 C-286.45 102.84 -292 100.76 -297.54 98.66 C-302.15 96.91 -306.78 95.21 -311.41 93.52 C-313.76 92.65 -316.12 91.78 -318.47 90.91 C-320.1 90.33 -320.1 90.33 -321.76 89.73 C-327.9 87.43 -332.03 85.32 -336.17 80.16 C-336.17 79.5 -336.17 78.84 -336.17 78.16 C-337.16 77.83 -338.15 77.5 -339.17 77.16 C-340.37 74.76 -340.32 73.2 -340.37 70.52 C-340.38 69.55 -340.4 68.59 -340.41 67.59 C-340.46 63.18 -340.5 58.76 -340.52 54.35 C-340.54 52.02 -340.57 49.69 -340.6 47.36 C-340.66 44.01 -340.68 40.65 -340.7 37.3 C-340.72 36.26 -340.74 35.22 -340.76 34.15 C-340.74 26.94 -340.74 26.94 -337.87 23.03 C-334.37 20.61 -331.36 19.9 -327.17 20.16 C-324.05 20.86 -321.14 21.92 -318.17 23.1 C-317.01 23.53 -317.01 23.53 -315.82 23.98 C-313.93 24.69 -312.05 25.42 -310.17 26.16 C-310.2 25.58 -310.22 25 -310.25 24.4 C-310.36 21.76 -310.42 19.12 -310.48 16.47 C-310.53 15.56 -310.57 14.65 -310.61 13.71 C-310.63 12.82 -310.64 11.94 -310.66 11.02 C-310.69 10.21 -310.71 9.4 -310.74 8.56 C-309.86 4.83 -308.18 3.5 -305.17 1.16 C-301.94 0.43 -298.77 0.49 -295.47 0.53 C-294.01 0.52 -294.01 0.52 -292.52 0.51 C-289.3 0.49 -286.08 0.51 -282.86 0.53 C-280.6 0.53 -278.35 0.53 -276.09 0.52 C-271.36 0.52 -266.62 0.54 -261.89 0.56 C-255.87 0.6 -249.86 0.59 -243.84 0.57 C-239.18 0.56 -234.51 0.57 -229.85 0.59 C-227.64 0.59 -225.42 0.59 -223.21 0.59 C-191.34 0.53 -163.89 8.67 -139.17 29.16 C-137.97 30.11 -137.97 30.11 -136.75 31.08 C-125.88 40.1 -117.22 52.46 -111.17 65.16 C-111.17 66.15 -111.17 67.14 -111.17 68.16 C-110.51 68.16 -109.85 68.16 -109.17 68.16 C-108.83 66.43 -108.83 66.43 -108.48 64.66 C-107.32 59.99 -105.26 55.88 -102.17 52.16 C-101.51 52.16 -100.85 52.16 -100.17 52.16 C-100.04 51.33 -100.04 51.33 -99.91 50.48 C-95.94 38.01 -78.7 25.73 -68.17 19.16 C-67.61 18.81 -67.05 18.46 -66.47 18.09 C-46.37 5.62 -23.6 0.03 0 0 Z " fill="#082D77" transform="translate(430.17236328125,374.8388671875)"/>
<path d="M0 0 C2.99 1 5.96 2.03 8.94 3.07 C8.94 3.73 8.94 4.39 8.94 5.07 C9.78 5.19 10.63 5.31 11.5 5.43 C15.1 6.1 18.41 7.08 21.88 8.21 C22.55 8.43 23.22 8.65 23.9 8.87 C26.1 9.58 28.3 10.3 30.49 11.02 C32.04 11.52 33.58 12.03 35.13 12.53 C39.19 13.85 43.26 15.18 47.33 16.51 C53.01 18.36 58.7 20.22 64.39 22.07 C67.41 23.05 70.43 24.03 73.45 25.02 C81.69 27.71 89.95 30.34 98.23 32.91 C103.42 34.53 108.6 36.18 113.78 37.84 C114.8 38.16 115.82 38.49 116.87 38.83 C120.06 39.84 123.25 40.86 126.44 41.88 C128.63 42.58 130.82 43.28 133.01 43.98 C138.32 45.68 143.63 47.37 148.94 49.07 C146.62 51.73 144.66 52.72 141.31 53.78 C140.37 54.08 139.43 54.38 138.46 54.69 C137.44 55.01 136.42 55.33 135.37 55.66 C126.64 58.48 117.98 61.44 109.37 64.64 C108.3 65.03 107.23 65.43 106.13 65.84 C103.89 66.67 101.65 67.5 99.42 68.34 C93.28 70.62 87.14 72.89 81 75.16 C80.36 75.4 79.72 75.63 79.06 75.88 C59.92 82.94 40.71 89.81 21.5 96.69 C20.84 96.93 20.18 97.17 19.49 97.41 C16.38 98.53 13.26 99.64 10.14 100.76 C9.05 101.15 7.95 101.55 6.81 101.95 C5.29 102.5 5.29 102.5 3.73 103.05 C1.25 103.95 -1.21 104.9 -3.67 105.86 C-7.06 107.07 -7.06 107.07 -10.06 107.07 C-10.39 108.06 -10.72 109.05 -11.06 110.07 C-21.74 109.52 -31.31 105.42 -40.92 100.97 C-44.07 99.65 -47.32 98.78 -50.6 97.85 C-52.99 97.09 -55.17 96.18 -57.44 95.13 C-61.74 93.15 -66.11 91.66 -70.61 90.21 C-74.7 88.86 -78.76 87.44 -82.81 86.01 C-83.51 85.76 -84.21 85.52 -84.93 85.26 C-89.66 83.59 -94.37 81.85 -99.06 80.07 C-107.35 76.93 -115.64 73.85 -124 70.94 C-129.13 69.16 -134.1 67.24 -139.02 64.94 C-142.16 63.6 -145.41 62.71 -148.68 61.77 C-152.22 60.73 -155.63 59.42 -159.06 58.07 C-160.29 57.6 -161.52 57.13 -162.79 56.65 C-164.15 56.12 -165.51 55.6 -166.88 55.07 C-167.86 54.7 -167.86 54.7 -168.87 54.31 C-172.19 53.01 -174.81 51.89 -177.06 49.07 C-167.98 45.19 -158.89 42.01 -149.41 39.25 C-144.5 37.82 -139.68 36.27 -134.88 34.51 C-129.11 32.38 -123.29 30.63 -117.38 28.94 C-112.88 27.64 -108.47 26.19 -104.06 24.57 C-98.23 22.43 -92.35 20.65 -86.38 18.94 C-81.88 17.64 -77.47 16.19 -73.06 14.57 C-67.23 12.43 -61.35 10.65 -55.38 8.94 C-49.73 7.31 -44.23 5.36 -38.7 3.33 C-33.71 1.6 -28.65 0.13 -23.57 -1.32 C-14.39 -3.94 -9.21 -3.04 0 0 Z " fill="#BA98F2" transform="translate(336.063720703125,110.93115234375)"/>
<path d="M0 0 C0 22.11 0 44.22 0 67 C-3.63 67.99 -7.26 68.98 -11 70 C-12.86 70.69 -14.72 71.39 -16.57 72.12 C-20.67 73.61 -24.85 74.85 -29.01 76.11 C-32.28 77.11 -35.44 78.18 -38.62 79.44 C-53.55 85.06 -69.89 85.61 -85.65 85.41 C-88.66 85.37 -91.66 85.37 -94.67 85.37 C-117.46 85.29 -117.46 85.29 -125.55 81.95 C-127.97 81.01 -129.59 80.81 -132.15 80.75 C-139.78 80.1 -146.89 77.32 -154.08 74.85 C-156.58 73.99 -159.09 73.15 -161.6 72.3 C-163.2 71.77 -164.79 71.23 -166.38 70.69 C-167.13 70.43 -167.88 70.18 -168.65 69.92 C-173.88 68.12 -173.88 68.12 -175 67 C-175.09 64.94 -175.12 62.89 -175.11 60.83 C-175.11 60.18 -175.11 59.54 -175.11 58.88 C-175.11 56.74 -175.11 54.6 -175.1 52.46 C-175.1 50.99 -175.09 49.51 -175.09 48.03 C-175.09 44.13 -175.08 40.23 -175.07 36.34 C-175.06 32.36 -175.05 28.39 -175.05 24.41 C-175.04 16.61 -175.02 8.8 -175 1 C-166.61 2.65 -158.94 5.37 -151.09 8.74 C-147.08 10.37 -143.01 11.71 -138.89 13.01 C-136.15 13.95 -133.54 15.06 -130.9 16.22 C-127.44 17.64 -123.87 18.73 -120.31 19.88 C-112.17 22.53 -104.3 25.61 -96.49 29.13 C-93.81 30.07 -91.77 30.24 -88.94 30.19 C-88.1 30.18 -87.26 30.17 -86.4 30.17 C-84.12 30.01 -82.16 29.76 -80 29 C-79.67 28.34 -79.34 27.68 -79 27 C-76.52 26 -76.52 26 -73.38 25 C-72.28 24.65 -71.19 24.3 -70.06 23.94 C-66.72 22.91 -63.37 21.94 -60 21 C-51.64 18.6 -43.79 15.87 -35.94 12.12 C-29.91 9.3 -23.85 7.17 -17.51 5.18 C-13.89 3.96 -10.49 2.53 -7 1 C-4.4 0.21 -2.76 0 0 0 Z " fill="#6864F6" transform="translate(410,211)"/>
<path d="M0 0 C4.5 0.61 8.44 1.76 12.68 3.35 C13.35 3.6 14.01 3.84 14.69 4.1 C16.16 4.64 17.62 5.19 19.09 5.74 C23.3 7.32 27.51 8.88 31.73 10.45 C33.14 10.97 33.14 10.97 34.58 11.51 C46.09 15.79 57.63 19.99 69.16 24.19 C73.95 25.94 78.73 27.69 83.52 29.44 C94.63 33.5 105.74 37.56 116.88 41.55 C120.72 42.92 124.55 44.3 128.38 45.68 C130.1 46.3 131.83 46.92 133.55 47.53 C135.89 48.36 138.23 49.2 140.56 50.04 C141.22 50.27 141.88 50.5 142.56 50.73 C149.02 53.1 154.97 56.53 158.25 62.78 C159.23 65.66 159.52 68.48 159.88 71.5 C160.56 76.89 161.7 79.94 165.46 83.83 C169.09 86.59 173.21 86.15 177.53 86.16 C178.29 86.17 179.06 86.17 179.85 86.18 C182.38 86.19 184.9 86.2 187.43 86.2 C189.19 86.21 190.95 86.21 192.71 86.22 C196.39 86.23 200.07 86.24 203.76 86.24 C208.48 86.25 213.2 86.27 217.93 86.3 C221.56 86.32 225.19 86.32 228.81 86.32 C230.56 86.33 232.3 86.33 234.04 86.35 C236.47 86.36 238.91 86.36 241.34 86.36 C242.42 86.37 242.42 86.37 243.52 86.38 C247.7 86.35 249.89 85.79 253 83 C253.66 83 254.32 83 255 83 C255.31 82.2 255.62 81.39 255.94 80.56 C257 78 257 78 258 77 C258.27 75.19 258.54 73.39 258.8 71.58 C260.6 59.48 260.6 59.48 265.83 55.3 C273.85 50.49 283.02 47.9 291.82 44.86 C298.44 42.57 305.01 40.16 311.56 37.69 C312.55 37.31 313.55 36.94 314.57 36.55 C316.63 35.78 318.7 35 320.76 34.22 C334.46 29.06 348.17 23.95 361.99 19.12 C367.2 17.29 372.38 15.41 377.56 13.5 C378.36 13.21 379.15 12.91 379.97 12.61 C383.76 11.21 387.53 9.8 391.3 8.36 C413.24 0 413.24 0 418 0 C418 7.26 418 14.52 418 22 C397.11 30.04 397.11 30.04 390.44 32.19 C385.59 33.75 380.95 35.65 376.27 37.64 C348.91 49 348.91 49 342 49 C342 49.66 342 50.32 342 51 C340.95 51.31 339.9 51.63 338.82 51.95 C337.4 52.39 335.98 52.82 334.56 53.25 C333.87 53.45 333.19 53.66 332.48 53.87 C327.92 55.27 323.65 57.01 319.31 59 C315.36 60.71 311.27 62.01 307.19 63.38 C294.13 67.48 294.13 67.48 283 75 C282.35 77.22 282.35 77.22 281.93 79.79 C281.67 81.2 281.67 81.2 281.4 82.64 C281.23 83.63 281.05 84.61 280.88 85.62 C280.6 87.11 280.6 87.11 280.32 88.63 C279.88 91.09 279.43 93.54 279 96 C278.34 96 277.68 96 277 96 C276.83 96.7 276.67 97.4 276.5 98.12 C273.93 103.04 269.22 106.26 264 108 C262.5 108.1 260.99 108.14 259.48 108.15 C258.09 108.17 258.09 108.17 256.67 108.18 C255.66 108.18 254.64 108.19 253.6 108.19 C252.53 108.2 251.46 108.21 250.35 108.22 C246.8 108.24 243.26 108.26 239.71 108.27 C238.5 108.28 237.28 108.28 236.03 108.29 C229.62 108.32 223.2 108.34 216.79 108.35 C210.17 108.37 203.54 108.41 196.92 108.46 C191.82 108.5 186.73 108.51 181.63 108.51 C179.19 108.52 176.75 108.54 174.31 108.56 C170.89 108.59 167.47 108.59 164.05 108.58 C162.54 108.61 162.54 108.61 161.01 108.63 C154.42 108.57 150.1 107.24 145 103 C142.69 100.5 142.69 100.5 141 98 C140.49 97.29 139.98 96.58 139.45 95.84 C137.33 91.69 137.27 87.45 137 82.88 C136.69 79.34 136.12 77.17 134.04 74.26 C130.01 71.27 125.87 69.62 121.19 67.88 C120.32 67.54 119.46 67.21 118.57 66.86 C116.05 65.89 113.53 64.94 111 64 C105.32 61.87 99.64 59.74 93.96 57.6 C87.89 55.32 81.81 53.04 75.73 50.76 C71.68 49.24 67.63 47.72 63.59 46.2 C58.86 44.42 54.13 42.65 49.4 40.88 C48.24 40.44 48.24 40.44 47.06 40 C38.72 36.87 30.37 33.76 22.01 30.71 C21.3 30.45 20.59 30.19 19.86 29.92 C16.53 28.71 13.19 27.49 9.85 26.29 C8.7 25.87 7.54 25.45 6.35 25.01 C5.33 24.65 4.32 24.28 3.27 23.9 C1 23 1 23 0 22 C-0.09 20.37 -0.11 18.73 -0.1 17.09 C-0.09 16.1 -0.09 15.11 -0.09 14.09 C-0.08 13.05 -0.07 12.01 -0.06 10.94 C-0.06 9.89 -0.05 8.85 -0.05 7.77 C-0.04 5.18 -0.02 2.59 0 0 Z " fill="#269FCA" transform="translate(111,421)"/>
<path d="M0 0 C10.12 -0.07 20.24 -0.12 30.36 -0.16 C35.06 -0.17 39.76 -0.19 44.46 -0.23 C49.01 -0.26 53.57 -0.28 58.12 -0.28 C59.84 -0.29 61.56 -0.3 63.28 -0.32 C91.66 -0.58 117.36 5.9 139 25 C140.49 26.19 140.49 26.19 142.01 27.41 C157.16 40.52 168.08 62.71 169.69 82.63 C169.85 85.75 169.92 88.87 170 92 C163.4 92 156.8 92 150 92 C149.65 90.23 149.3 88.45 148.94 86.62 C146.41 76.62 140.4 68.91 132 63 C124.37 59.02 116.23 56.13 108.15 53.22 C106.26 52.53 104.38 51.85 102.49 51.16 C100.49 50.44 98.49 49.71 96.49 48.99 C92.33 47.48 88.16 45.97 84 44.46 C83.3 44.2 82.6 43.95 81.87 43.68 C80.44 43.16 79.01 42.64 77.58 42.12 C75.41 41.33 73.24 40.54 71.07 39.75 C57.17 34.7 43.29 29.62 29.41 24.52 C26.89 23.59 24.37 22.66 21.84 21.74 C18.34 20.46 14.85 19.17 11.35 17.88 C10.31 17.5 9.27 17.12 8.19 16.73 C7.25 16.38 6.31 16.03 5.35 15.68 C4.53 15.37 3.71 15.07 2.86 14.76 C1 14 1 14 0 13 C-0.07 10.81 -0.08 8.62 -0.06 6.44 C-0.05 5.24 -0.04 4.04 -0.04 2.81 C-0.02 1.88 -0.01 0.95 0 0 Z " fill="#FAFBFC" transform="translate(140,396)"/>
<path d="M0 0 C1.89 0 3.78 0.01 5.67 0.01 C10.61 0.02 15.55 0.04 20.49 0.06 C25.54 0.08 30.6 0.09 35.65 0.1 C45.55 0.12 55.44 0.15 65.33 0.2 C65.33 4.49 65.33 8.78 65.33 13.2 C52.95 18.55 40.25 23.04 27.54 27.54 C20.72 29.95 13.96 32.48 7.21 35.07 C-0.59 38.07 -8.44 40.89 -16.34 43.61 C-22.77 45.84 -29.1 48.27 -35.43 50.78 C-39.6 52.42 -43.78 53.94 -48.04 55.32 C-64.96 60.82 -64.96 60.82 -76.94 73.47 C-77.18 74.04 -77.42 74.61 -77.67 75.2 C-78.33 75.2 -78.99 75.2 -79.67 75.2 C-80.13 76.55 -80.59 77.9 -81.04 79.26 C-81.43 80.39 -81.43 80.39 -81.82 81.54 C-82.84 84.74 -83.75 87.97 -84.67 91.2 C-90.94 91.2 -97.21 91.2 -103.67 91.2 C-104.02 83.3 -102.87 76.76 -100.67 69.2 C-100.35 68.06 -100.04 66.92 -99.72 65.75 C-98.03 59.87 -96.34 55.16 -92.67 50.2 C-92.05 48.59 -92.05 48.59 -91.42 46.95 C-89.28 41.65 -85.31 37.51 -81.67 33.2 C-80.89 32.21 -80.11 31.23 -79.31 30.22 C-59.67 6.72 -29.02 -0.17 0 0 Z " fill="#FBFBFC" transform="translate(434.66796875,395.8046875)"/>
<path d="M0 0 C7.61 2.28 15.13 4.68 22.56 7.5 C27.89 9.5 33.21 11.44 38.62 13.19 C41.91 14.26 45.05 15.42 48.19 16.88 C53.85 19.49 59.74 21.44 65.63 23.47 C68.42 24.44 71.2 25.44 73.96 26.5 C75.78 27.18 75.78 27.18 77.62 27.88 C78.69 28.28 79.75 28.69 80.85 29.12 C85.1 30.31 88.98 30.74 93.19 29.2 C93.79 28.84 94.38 28.49 95 28.12 C98.6 26.16 102.04 25.12 106 24 C107.84 23.25 109.67 22.47 111.5 21.69 C116.1 19.73 120.74 18.04 125.5 16.5 C130.09 15.02 134.57 13.41 139 11.5 C144.1 9.31 149.28 7.52 154.55 5.82 C159.1 4.34 163.48 2.64 167.85 0.7 C170 0 170 0 175 0 C175 11.22 175 22.44 175 34 C171.37 34.99 167.74 35.98 164 37 C162.14 37.69 160.28 38.39 158.43 39.12 C154.33 40.61 150.15 41.85 145.99 43.11 C142.72 44.11 139.56 45.18 136.38 46.44 C121.45 52.06 105.11 52.61 89.35 52.41 C86.34 52.37 83.34 52.37 80.33 52.37 C57.54 52.29 57.54 52.29 49.45 48.95 C47.03 48.01 45.41 47.81 42.85 47.75 C35.22 47.1 28.11 44.32 20.92 41.85 C18.42 40.99 15.91 40.15 13.4 39.3 C11.8 38.77 10.21 38.23 8.62 37.69 C7.87 37.43 7.12 37.18 6.35 36.92 C1.12 35.12 1.12 35.12 0 34 C-0.09 31.48 -0.12 28.99 -0.1 26.46 C-0.1 25.71 -0.09 24.96 -0.09 24.18 C-0.09 21.77 -0.08 19.35 -0.06 16.94 C-0.06 15.3 -0.05 13.67 -0.05 12.04 C-0.04 8.02 -0.02 4.01 0 0 Z " fill="#B897F2" transform="translate(235,244)"/>
<path d="M0 0 C4.95 0 9.9 0 15 0 C16.78 6.22 18.03 12.21 19.12 18.56 C19.31 19.58 19.49 20.59 19.68 21.64 C19.85 22.63 20.02 23.61 20.2 24.63 C20.35 25.52 20.51 26.4 20.66 27.32 C21 30 21 30 21 36 C12.09 36 3.18 36 -6 36 C-4.75 23.77 -2.71 11.99 0 0 Z " fill="#B495F0" transform="translate(119,278)"/>
<path d="M0 0 C4.95 0 9.9 0 15 0 C16.36 4.76 17.27 8.19 17.62 12.94 C17.7 13.9 17.77 14.85 17.85 15.84 C17.9 16.55 17.95 17.27 18 18 C15.65 19.17 14.26 19.12 11.65 19.1 C10.8 19.09 9.95 19.09 9.07 19.09 C8.18 19.08 7.29 19.07 6.38 19.06 C5.48 19.06 4.58 19.05 3.66 19.05 C1.44 19.04 -0.78 19.02 -3 19 C-2.46 12.5 -1.53 6.34 0 0 Z " fill="#6562F3" transform="translate(119,278)"/>
<path d="M0 0 C3.59 2.06 5.4 3.24 6.73 7.16 C7.43 11.31 7.41 13.33 5.19 17 C1.61 20.27 -1.03 20.39 -5.74 20.36 C-9.3 19.79 -10.85 17.75 -13 15 C-13.33 14.67 -13.66 14.34 -14 14 C-14.18 10.21 -14.01 6.49 -11.84 3.29 C-8.09 -0.18 -4.92 -0.88 0 0 Z " fill="#B395EE" transform="translate(130,237)"/>
<path d="M0 0 C2.93 2.93 2.46 6.19 2.62 10.12 C2.75 12.72 2.87 15.32 3 18 C-3.6 18 -10.2 18 -17 18 C-17 17.34 -17 16.68 -17 16 C-11.06 16 -5.12 16 1 16 C0.67 10.72 0.34 5.44 0 0 Z " fill="#B4BFD5" transform="translate(307,470)"/>
<path d="M0 0 C0.66 0.33 1.32 0.66 2 1 C-2.29 5.29 -6.58 9.58 -11 14 C-11.66 13.67 -12.32 13.34 -13 13 C-9.06 8.12 -4.88 3.94 0 0 Z " fill="#D8DEE9" transform="translate(365,417)"/>
<path d="M0 0 C0.66 0.33 1.32 0.66 2 1 C1.05 2.01 0.09 3 -0.88 4 C-1.41 4.56 -1.94 5.11 -2.49 5.69 C-4 7 -4 7 -6 7 C-4.61 3.63 -3.02 2.01 0 0 Z " fill="#0C468A" transform="translate(399,491)"/>
</svg>
