<?xml version="1.0" encoding="utf-8"?>
<!-- Uploaded to: SVG Repo, www.svgrepo.com, Generator: SVG Repo Mixer Tools -->
<svg width="800px" height="800px" viewBox="0 -17 1058 1058" class="icon"  version="1.1" xmlns="http://www.w3.org/2000/svg"><path d="M974.730635 748.437836h-888.228005a63.444857 63.444857 0 0 1-63.444858-63.444858V267.737299a63.444857 63.444857 0 0 1 21.148286-46.737712C103.421258 167.282941 285.507999 22.2057 530.616632 22.2057s427.829822 144.865758 486.410574 198.793887a63.444857 63.444857 0 0 1 21.148286 46.737712v417.255679a63.444857 63.444857 0 0 1-63.444857 63.444858z" fill="#C0D36F" /><path d="M972.827289 769.586121H84.599284a84.593143 84.593143 0 0 1-84.593143-84.593143V267.737299a84.593143 84.593143 0 0 1 27.492771-63.444858C94.961944 142.962412 278.952031 0 528.713286 0S962.464629 142.750929 1029.927661 204.292441a84.593143 84.593143 0 0 1 27.492771 63.444858v417.255679a84.593143 84.593143 0 0 1-84.593143 84.593143zM528.713286 43.565469c-234.957456 0-408.796365 135.137546-472.664188 193.295332A42.296572 42.296572 0 0 0 42.302712 267.948781v417.044197a42.296572 42.296572 0 0 0 42.296572 42.296572h888.228005a42.296572 42.296572 0 0 0 42.296572-42.296572V267.737299a42.296572 42.296572 0 0 0-13.746386-31.087981C937.721134 178.491532 763.670742 43.353986 528.713286 43.353986z" fill="#27284D" /><path d="M647.35517 969.648905l-32.145395-32.991325a21.148286 21.148286 0 0 0-32.145394 2.537794l-38.278397 53.505163a21.148286 21.148286 0 0 1-33.625775 0l-42.296571-52.659232a21.148286 21.148286 0 0 0-31.722429-1.268897l-26.012392 27.281289a21.148286 21.148286 0 0 1-36.163569-11.420075l-57.100371-380.669145h422.965716l-57.311854 380.669145a21.148286 21.148286 0 0 1-36.163569 15.015283zM396.325017 581.57786l264.776539 264.776539M379.829354 648.617926l297.767865 298.190831" fill="#FFFFFF" /><path d="M803.641002 553.027675H253.785571a21.148286 21.148286 0 0 0 0 42.296571h44.834366l54.77406 364.596448a42.296572 42.296572 0 0 0 72.327137 23.051631l26.012392-27.281288 42.296572 52.659231a42.296572 42.296572 0 0 0 32.779843 15.649732h1.268897a42.296572 42.296572 0 0 0 32.991326-17.553077l38.278397-53.505163 31.933912 31.933911a42.296572 42.296572 0 0 0 71.692689-23.68608l54.77406-365.653862h44.834366A21.254027 21.254027 0 0 0 803.641002 553.027675zM421.279994 926.294919l-26.012391 27.281289-11.208592-74.441966 42.296572 42.296572a42.296572 42.296572 0 0 0-5.075589 4.864105zM528.713286 974.513011l-155.228418-164.745146-14.8038-98.128047 211.482859 211.482859c-1.268897 1.268897-41.45064 51.178852-41.450641 51.178851z m133.445684-19.667906l-22.840149-22.840148-291.211896-291.423379-6.344485-42.296572h77.825692l257.374638 257.374639z m22.628666-151.844692l-205.349856-204.715407h109.336638l110.394052 110.182569z m-36.163569-204.715407h67.040066l-8.670797 58.157786zM338.378714 513.691863v-152.902107a21.148286 21.148286 0 0 1 21.148286-21.148286h338.372573a21.148286 21.148286 0 0 1 21.148286 21.148286v152.902107h42.296572v-152.902107a63.444857 63.444857 0 0 0-63.444858-63.444857H359.527a63.444857 63.444857 0 0 0-63.444858 63.444857v152.902107h42.296572z" fill="#2B2C54" /></svg>